<svg width="262" height="39" viewBox="0 0 262 39" fill="none" xmlns="http://www.w3.org/2000/svg">
<rect width="262" height="39" rx="4" fill="#E6E6E5"/>
<path d="M89.316 25V15.2H93.6C96.778 15.2 98.948 17.16 98.948 20.1C98.948 23.04 96.778 25 93.6 25H89.316ZM91.136 23.46H93.516C95.7 23.46 97.114 22.13 97.114 20.1C97.114 18.07 95.7 16.74 93.516 16.74H91.136V23.46ZM107.742 21.304C107.742 21.444 107.728 21.654 107.714 21.822H101.848C102.058 22.914 102.968 23.614 104.27 23.614C105.11 23.614 105.768 23.348 106.3 22.802L107.238 23.88C106.566 24.678 105.516 25.098 104.228 25.098C101.722 25.098 100.098 23.488 100.098 21.262C100.098 19.036 101.736 17.44 103.962 17.44C106.146 17.44 107.742 18.966 107.742 21.304ZM103.962 18.84C102.828 18.84 102.002 19.568 101.834 20.66H106.076C105.936 19.582 105.11 18.84 103.962 18.84ZM118.859 17.44C120.665 17.44 121.925 18.462 121.925 20.716V25H120.175V20.94C120.175 19.61 119.559 18.966 118.495 18.966C117.347 18.966 116.549 19.722 116.549 21.206V25H114.799V20.94C114.799 19.61 114.183 18.966 113.119 18.966C111.957 18.966 111.173 19.722 111.173 21.206V25H109.423V17.524H111.089V18.476C111.649 17.804 112.517 17.44 113.539 17.44C114.631 17.44 115.541 17.846 116.059 18.686C116.661 17.916 117.669 17.44 118.859 17.44ZM127.59 25.098C125.294 25.098 123.614 23.502 123.614 21.262C123.614 19.022 125.294 17.44 127.59 17.44C129.914 17.44 131.58 19.022 131.58 21.262C131.58 23.502 129.914 25.098 127.59 25.098ZM127.59 23.6C128.864 23.6 129.816 22.69 129.816 21.262C129.816 19.834 128.864 18.924 127.59 18.924C126.33 18.924 125.378 19.834 125.378 21.262C125.378 22.69 126.33 23.6 127.59 23.6ZM137.291 25V15.2H141.575C144.753 15.2 146.923 17.16 146.923 20.1C146.923 23.04 144.753 25 141.575 25H137.291ZM139.111 23.46H141.491C143.675 23.46 145.089 22.13 145.089 20.1C145.089 18.07 143.675 16.74 141.491 16.74H139.111V23.46ZM150.355 18.616C150.859 17.832 151.769 17.44 153.015 17.44V19.106C152.861 19.078 152.735 19.064 152.609 19.064C151.279 19.064 150.439 19.848 150.439 21.374V25H148.689V17.524H150.355V18.616ZM155.382 16.292C154.738 16.292 154.262 15.83 154.262 15.242C154.262 14.654 154.738 14.192 155.382 14.192C156.026 14.192 156.502 14.626 156.502 15.2C156.502 15.816 156.04 16.292 155.382 16.292ZM154.5 25V17.524H156.25V25H154.5ZM163.866 17.524H165.546L162.34 25H160.534L157.328 17.524H159.148L161.472 23.068L163.866 17.524ZM173.463 21.304C173.463 21.444 173.449 21.654 173.435 21.822H167.569C167.779 22.914 168.689 23.614 169.991 23.614C170.831 23.614 171.489 23.348 172.021 22.802L172.959 23.88C172.287 24.678 171.237 25.098 169.949 25.098C167.443 25.098 165.819 23.488 165.819 21.262C165.819 19.036 167.457 17.44 169.683 17.44C171.867 17.44 173.463 18.966 173.463 21.304ZM169.683 18.84C168.549 18.84 167.723 19.568 167.555 20.66H171.797C171.657 19.582 170.831 18.84 169.683 18.84Z" fill="black"/>
</svg>
