<svg width="262" height="39" viewBox="0 0 262 39" fill="none" xmlns="http://www.w3.org/2000/svg">
<rect width="262" height="39" rx="4" fill="#3B3D40"/>
<path d="M97.394 25.14C94.356 25.14 92.116 22.998 92.116 20.1C92.116 17.202 94.356 15.06 97.394 15.06C100.432 15.06 102.672 17.188 102.672 20.1C102.672 23.012 100.432 25.14 97.394 25.14ZM97.394 23.544C99.368 23.544 100.838 22.102 100.838 20.1C100.838 18.098 99.368 16.656 97.394 16.656C95.42 16.656 93.95 18.098 93.95 20.1C93.95 22.102 95.42 23.544 97.394 23.544ZM106.099 18.616C106.603 17.832 107.513 17.44 108.759 17.44V19.106C108.605 19.078 108.479 19.064 108.353 19.064C107.023 19.064 106.183 19.848 106.183 21.374V25H104.433V17.524H106.099V18.616ZM115.747 14.612H117.497V25H115.817V24.034C115.229 24.748 114.361 25.098 113.339 25.098C111.169 25.098 109.559 23.586 109.559 21.262C109.559 18.938 111.169 17.44 113.339 17.44C114.305 17.44 115.159 17.762 115.747 18.448V14.612ZM113.549 23.6C114.809 23.6 115.775 22.69 115.775 21.262C115.775 19.834 114.809 18.924 113.549 18.924C112.289 18.924 111.323 19.834 111.323 21.262C111.323 22.69 112.289 23.6 113.549 23.6ZM126.815 21.304C126.815 21.444 126.801 21.654 126.787 21.822H120.921C121.131 22.914 122.041 23.614 123.343 23.614C124.183 23.614 124.841 23.348 125.373 22.802L126.311 23.88C125.639 24.678 124.589 25.098 123.301 25.098C120.795 25.098 119.171 23.488 119.171 21.262C119.171 19.036 120.809 17.44 123.035 17.44C125.219 17.44 126.815 18.966 126.815 21.304ZM123.035 18.84C121.901 18.84 121.075 19.568 120.907 20.66H125.149C125.009 19.582 124.183 18.84 123.035 18.84ZM130.162 18.616C130.666 17.832 131.576 17.44 132.822 17.44V19.106C132.668 19.078 132.542 19.064 132.416 19.064C131.086 19.064 130.246 19.848 130.246 21.374V25H128.496V17.524H130.162V18.616ZM145.314 15.2H147.12V25H145.622L140.218 18.364V25H138.412V15.2H139.91L145.314 21.836V15.2ZM152.938 25.098C150.642 25.098 148.962 23.502 148.962 21.262C148.962 19.022 150.642 17.44 152.938 17.44C155.262 17.44 156.928 19.022 156.928 21.262C156.928 23.502 155.262 25.098 152.938 25.098ZM152.938 23.6C154.212 23.6 155.164 22.69 155.164 21.262C155.164 19.834 154.212 18.924 152.938 18.924C151.678 18.924 150.726 19.834 150.726 21.262C150.726 22.69 151.678 23.6 152.938 23.6ZM168.504 17.524H170.058L167.3 25H165.62L163.688 19.848L161.728 25H160.048L157.304 17.524H158.956L160.93 23.04L162.988 17.524H164.458L166.474 23.068L168.504 17.524Z" fill="white"/>
</svg>
